# xmcd
#
# Track frame offsets:
#	150
#	22482
#	34935
#	51133
#	84120
#	98118
#	126541
#	140733
#	159248
#	169678
#	181996
#	206018
#	221156
#	236946
#	252164
#	276801
#	293509
#
# Disc length: 4120 seconds
#
# Revision: 6
# Processed by: cddbd v1.5.2PL0 Copyright (c) Steve Scherf et al.
# Submitted via: EasyCDDAExtractor 12.0.0.1
#
DISCID=00101611
DTITLE=Various Artist - The Best Of Blues - CD1
DYEAR=2000
DGENRE=Blues
TTITLE0=B. B. King - The Thrill Is Gone
TTITLE1=James Brown - It's A Man's Man's Man's World
TTITLE2=Dr. John - I Like Ki Yoka
TTITLE3=Albert King - I'll Play The Blues For You
TTITLE4=Kihg Biscuit Boy and Ronnie Hawkins Band - Neighbour Neighbour
TTITLE5=Billy Boy Arnold and Tony McPhee - Blue And Lonesome
TTITLE6=Buddy Guy - Sit And Cry (The Blues)
TTITLE7=Byther Smith - Come On In This House
TTITLE8=The Paul Delay Band - Harpoon Man
TTITLE9=Buddy Guy - You Sure Can't Do
TTITLE10=Jimmy Johnson - When My First Wife Quit Me
TTITLE11=Isaac Scott - Help
TTITLE12=Clarence Edwards - Rocky Mountains
TTITLE13=Buddy Guy and Junior Wells - Hoodoo Man Blues
TTITLE14=Byther Smith - Hold That Train
TTITLE15=Billy Boy Arnold - Back Door Friend
TTITLE16=Louisianna Red - Lightning Bug
EXTD=
EXTT0=
EXTT1=
EXTT2=
EXTT3=
EXTT4=
EXTT5=
EXTT6=
EXTT7=
EXTT8=
EXTT9=
EXTT10=
EXTT11=
EXTT12=
EXTT13=
EXTT14=
EXTT15=
EXTT16=
PLAYORDER=
